<mxfile host="Electron" modified="2024-01-11T06:58:19.719Z" agent="Mozilla/5.0 (Windows NT 10.0; Win64; x64) AppleWebKit/537.36 (KHTML, like Gecko) draw.io/22.1.11 Chrome/114.0.5735.289 Electron/25.9.8 Safari/537.36" etag="Vx_f5xy66n1lE_ncm-EX" version="22.1.11" type="device">
  <diagram name="第 1 页" id="dsHZqEn8iuQj3F7Fjihz">
    <mxGraphModel dx="1434" dy="844" grid="1" gridSize="10" guides="1" tooltips="1" connect="1" arrows="1" fold="1" page="1" pageScale="1" pageWidth="827" pageHeight="1169" math="0" shadow="0">
      <root>
        <mxCell id="0" />
        <mxCell id="1" parent="0" />
        <mxCell id="hVccNG8WFCPBOStxlUXt-23" style="edgeStyle=orthogonalEdgeStyle;rounded=0;orthogonalLoop=1;jettySize=auto;html=1;entryX=1;entryY=0.5;entryDx=0;entryDy=0;exitX=1;exitY=0.5;exitDx=0;exitDy=0;endArrow=diamondThin;endFill=0;" edge="1" parent="1" source="hVccNG8WFCPBOStxlUXt-1" target="hVccNG8WFCPBOStxlUXt-7">
          <mxGeometry relative="1" as="geometry" />
        </mxCell>
        <mxCell id="hVccNG8WFCPBOStxlUXt-1" value="A" style="swimlane;fontStyle=1;align=center;verticalAlign=top;childLayout=stackLayout;horizontal=1;startSize=26;horizontalStack=0;resizeParent=1;resizeParentMax=0;resizeLast=0;collapsible=1;marginBottom=0;whiteSpace=wrap;html=1;" vertex="1" parent="1">
          <mxGeometry x="80" y="280" width="120" height="34" as="geometry" />
        </mxCell>
        <mxCell id="hVccNG8WFCPBOStxlUXt-3" value="" style="line;strokeWidth=1;fillColor=none;align=left;verticalAlign=middle;spacingTop=-1;spacingLeft=3;spacingRight=3;rotatable=0;labelPosition=right;points=[];portConstraint=eastwest;strokeColor=inherit;" vertex="1" parent="hVccNG8WFCPBOStxlUXt-1">
          <mxGeometry y="26" width="120" height="8" as="geometry" />
        </mxCell>
        <mxCell id="hVccNG8WFCPBOStxlUXt-10" style="edgeStyle=none;rounded=0;orthogonalLoop=1;jettySize=auto;html=1;endArrow=block;endFill=0;" edge="1" parent="1" source="hVccNG8WFCPBOStxlUXt-5" target="hVccNG8WFCPBOStxlUXt-1">
          <mxGeometry relative="1" as="geometry" />
        </mxCell>
        <mxCell id="hVccNG8WFCPBOStxlUXt-5" value="B" style="swimlane;fontStyle=1;align=center;verticalAlign=top;childLayout=stackLayout;horizontal=1;startSize=26;horizontalStack=0;resizeParent=1;resizeParentMax=0;resizeLast=0;collapsible=1;marginBottom=0;whiteSpace=wrap;html=1;" vertex="1" parent="1">
          <mxGeometry y="360" width="120" height="34" as="geometry" />
        </mxCell>
        <mxCell id="hVccNG8WFCPBOStxlUXt-6" value="" style="line;strokeWidth=1;fillColor=none;align=left;verticalAlign=middle;spacingTop=-1;spacingLeft=3;spacingRight=3;rotatable=0;labelPosition=right;points=[];portConstraint=eastwest;strokeColor=inherit;" vertex="1" parent="hVccNG8WFCPBOStxlUXt-5">
          <mxGeometry y="26" width="120" height="8" as="geometry" />
        </mxCell>
        <mxCell id="hVccNG8WFCPBOStxlUXt-11" style="edgeStyle=none;rounded=0;orthogonalLoop=1;jettySize=auto;html=1;endArrow=block;endFill=0;" edge="1" parent="1" source="hVccNG8WFCPBOStxlUXt-7" target="hVccNG8WFCPBOStxlUXt-1">
          <mxGeometry relative="1" as="geometry" />
        </mxCell>
        <mxCell id="hVccNG8WFCPBOStxlUXt-7" value="C" style="swimlane;fontStyle=1;align=center;verticalAlign=top;childLayout=stackLayout;horizontal=1;startSize=26;horizontalStack=0;resizeParent=1;resizeParentMax=0;resizeLast=0;collapsible=1;marginBottom=0;whiteSpace=wrap;html=1;" vertex="1" parent="1">
          <mxGeometry x="160" y="360" width="120" height="34" as="geometry" />
        </mxCell>
        <mxCell id="hVccNG8WFCPBOStxlUXt-8" value="" style="line;strokeWidth=1;fillColor=none;align=left;verticalAlign=middle;spacingTop=-1;spacingLeft=3;spacingRight=3;rotatable=0;labelPosition=right;points=[];portConstraint=eastwest;strokeColor=inherit;" vertex="1" parent="hVccNG8WFCPBOStxlUXt-7">
          <mxGeometry y="26" width="120" height="8" as="geometry" />
        </mxCell>
        <mxCell id="hVccNG8WFCPBOStxlUXt-12" value="A" style="swimlane;fontStyle=1;align=center;verticalAlign=top;childLayout=stackLayout;horizontal=1;startSize=26;horizontalStack=0;resizeParent=1;resizeParentMax=0;resizeLast=0;collapsible=1;marginBottom=0;whiteSpace=wrap;html=1;" vertex="1" parent="1">
          <mxGeometry x="440" y="280" width="120" height="34" as="geometry" />
        </mxCell>
        <mxCell id="hVccNG8WFCPBOStxlUXt-13" value="" style="line;strokeWidth=1;fillColor=none;align=left;verticalAlign=middle;spacingTop=-1;spacingLeft=3;spacingRight=3;rotatable=0;labelPosition=right;points=[];portConstraint=eastwest;strokeColor=inherit;" vertex="1" parent="hVccNG8WFCPBOStxlUXt-12">
          <mxGeometry y="26" width="120" height="8" as="geometry" />
        </mxCell>
        <mxCell id="hVccNG8WFCPBOStxlUXt-14" style="edgeStyle=none;rounded=0;orthogonalLoop=1;jettySize=auto;html=1;endArrow=block;endFill=0;" edge="1" source="hVccNG8WFCPBOStxlUXt-15" target="hVccNG8WFCPBOStxlUXt-12" parent="1">
          <mxGeometry relative="1" as="geometry" />
        </mxCell>
        <mxCell id="hVccNG8WFCPBOStxlUXt-22" style="edgeStyle=none;rounded=0;orthogonalLoop=1;jettySize=auto;html=1;endArrow=diamondThin;endFill=0;" edge="1" parent="1" source="hVccNG8WFCPBOStxlUXt-15" target="hVccNG8WFCPBOStxlUXt-18">
          <mxGeometry relative="1" as="geometry" />
        </mxCell>
        <mxCell id="hVccNG8WFCPBOStxlUXt-15" value="B" style="swimlane;fontStyle=1;align=center;verticalAlign=top;childLayout=stackLayout;horizontal=1;startSize=26;horizontalStack=0;resizeParent=1;resizeParentMax=0;resizeLast=0;collapsible=1;marginBottom=0;whiteSpace=wrap;html=1;" vertex="1" parent="1">
          <mxGeometry x="360" y="360" width="120" height="34" as="geometry" />
        </mxCell>
        <mxCell id="hVccNG8WFCPBOStxlUXt-16" value="" style="line;strokeWidth=1;fillColor=none;align=left;verticalAlign=middle;spacingTop=-1;spacingLeft=3;spacingRight=3;rotatable=0;labelPosition=right;points=[];portConstraint=eastwest;strokeColor=inherit;" vertex="1" parent="hVccNG8WFCPBOStxlUXt-15">
          <mxGeometry y="26" width="120" height="8" as="geometry" />
        </mxCell>
        <mxCell id="hVccNG8WFCPBOStxlUXt-17" style="edgeStyle=none;rounded=0;orthogonalLoop=1;jettySize=auto;html=1;endArrow=block;endFill=0;" edge="1" source="hVccNG8WFCPBOStxlUXt-18" target="hVccNG8WFCPBOStxlUXt-12" parent="1">
          <mxGeometry relative="1" as="geometry" />
        </mxCell>
        <mxCell id="hVccNG8WFCPBOStxlUXt-18" value="C" style="swimlane;fontStyle=1;align=center;verticalAlign=top;childLayout=stackLayout;horizontal=1;startSize=26;horizontalStack=0;resizeParent=1;resizeParentMax=0;resizeLast=0;collapsible=1;marginBottom=0;whiteSpace=wrap;html=1;" vertex="1" parent="1">
          <mxGeometry x="520" y="360" width="120" height="34" as="geometry" />
        </mxCell>
        <mxCell id="hVccNG8WFCPBOStxlUXt-19" value="" style="line;strokeWidth=1;fillColor=none;align=left;verticalAlign=middle;spacingTop=-1;spacingLeft=3;spacingRight=3;rotatable=0;labelPosition=right;points=[];portConstraint=eastwest;strokeColor=inherit;" vertex="1" parent="hVccNG8WFCPBOStxlUXt-18">
          <mxGeometry y="26" width="120" height="8" as="geometry" />
        </mxCell>
        <mxCell id="hVccNG8WFCPBOStxlUXt-20" value="装饰模式" style="text;html=1;strokeColor=none;fillColor=none;align=center;verticalAlign=middle;whiteSpace=wrap;rounded=0;" vertex="1" parent="1">
          <mxGeometry x="110" y="240" width="60" height="30" as="geometry" />
        </mxCell>
        <mxCell id="hVccNG8WFCPBOStxlUXt-21" value="代理模式" style="text;html=1;strokeColor=none;fillColor=none;align=center;verticalAlign=middle;whiteSpace=wrap;rounded=0;" vertex="1" parent="1">
          <mxGeometry x="470" y="240" width="60" height="30" as="geometry" />
        </mxCell>
      </root>
    </mxGraphModel>
  </diagram>
</mxfile>
